<svg xmlns="http://www.w3.org/2000/svg" viewBox="0 0 707.76 771.71"><defs><style>.cls-1{fill:none;stroke:#000;stroke-miterlimit:10;stroke-width:40px;}</style></defs><g id="Layer_2" data-name="Layer 2"><g id="Layer_1-2" data-name="Layer 1"><path class="cls-1" d="M49.08,562.52c50.31-59.86,160.58-61.94,205,0,30.15,42,24,105.2-8,144-51.55,62.57-168.23,59.47-210-5C9.15,660,17.79,599.75,49.08,562.52Z"/><path class="cls-1" d="M508.08,550.52c43.72-36,117.84-43.71,156-3,42.67,45.54,25.29,135.6-33,172-53.22,33.23-135.14,18.37-162-36C446.11,637.05,472.37,579.91,508.08,550.52Z"/><path class="cls-1" d="M146.84,520.12s264.24-781.6,356.24-390.6l92,391"/></g></g></svg>